#!OML:ASF F:\VICON\USERDATA\INSTALL\rory3\rory3.ASF
:FULLY-SPECIFIED
:DEGREES
1
root 0.341697 18.976999999999997 -16.929400000000037 4.968230000000002 4.072179999999985 -3.310030000000002
lfemur -36.41289999999999 -2.811639999999997 -17.867399999999996
ltibia 38.902799999999985
lfoot 4.85847 -8.212000000000002
ltoes -21.381999999999994
rfemur 14.646599999999982 6.748110000000002 32.2289
rtibia 33.033399999999986
rfoot 23.38089999999999 -7.624930000000003
rtoes 3.6511400000000007
lowerback nan 1.647460000000001 5.6604299999999945
upperback -2.486239999999998 3.3016599999999983 1.62131
thorax -9.78579 1.311329999999999 -2.136879999999996
lowerneck -18.5207 -6.133829999999998 -2.53942
upperneck 13.027200000000008 -8.260060000000005 3.52102
head 7.276459999999998 -3.7524099999999994 0.5972309999999986
lclavicle -3.5930300000000064e-14 -9.144089999999994e-15
lhumerus -68.3925 -3.073059999999993 87.5021
lradius 109.077
lwrist 29.7258
lhand -22.031900000000007 4.9523899999999985
lfingers nan
lthumb 4.377959999999995 34.8871
rclavicle -3.5930300000000064e-14 -9.144089999999994e-15
rhumerus -40.2171 20.23959999999998 -95.8403
rradius 126.87699999999998
rwrist -17.861100000000008
rhand -25.153099999999995 nan
rfingers nan
rthumb 1.363660000000003 5.603879999999998
2
root 0.3505110000000005 19.004999999999995 -16.409399999999955 4.793540000000001 3.9267399999999917 -3.563499999999998
lfemur -35.08610000000001 -2.7871199999999994 -17.758800000000004
ltibia 34.76620000000003
lfoot 5.14711 -7.8469500000000005
ltoes -23.162800000000015
rfemur 14.597799999999982 7.508800000000006 32.795
rtibia 35.93839999999996
rfoot 23.434100000000015 -8.045729999999999
rtoes 12.041799999999995
lowerback nan 1.752139999999998 5.794789999999992
upperback -2.437799999999996 3.468459999999995 1.6588799999999997
thorax -9.745299999999999 1.3867799999999995 -2.206670000000003
lowerneck -19.1033 -6.093909999999999 -2.54826
upperneck 13.220699999999988 -8.217039999999995 3.61915
head 7.441460000000002 -3.7099700000000038 0.6167480000000016
lclavicle 1.0585299999999979e-14 1.1927099999999979e-14
lhumerus -68.69489999999999 -3.0813400000000044 87.1488
lradius 109.505
lwrist 29.512400000000003
lhand -21.981300000000005 4.727600000000002
lfingers nan
lthumb 4.426809999999996 34.6613
rclavicle 1.0585299999999979e-14 1.1927099999999979e-14
rhumerus -40.380799999999994 20.140099999999986 -95.5859
rradius 126.81000000000002
rwrist -19.3521
rhand -23.202600000000004 nan
rfingers nan
rthumb 3.2474199999999938 7.190049999999999
3
root 0.35610000000000025 19.0088 -15.902399999999957 4.535210000000001 3.8058200000000033 -3.7660199999999975
lfemur -33.78850000000003 -2.772189999999998 -17.745899999999995
ltibia 30.802700000000062
lfoot 5.535380000000002 -7.501580000000004
ltoes -25.0381
rfemur 14.463100000000004 8.059139999999994 33.2837
rtibia 39.12270000000001
rfoot 22.755499999999984 -8.705959999999994
rtoes 17.029000000000018
lowerback nan 1.8555800000000011 5.859370000000007
upperback -2.4199299999999986 3.633339999999997 1.6780300000000001
thorax -9.82431 1.4597600000000013 -2.2642199999999986
lowerneck -19.1543 -6.0188399999999955 -2.55513
upperneck 13.089900000000007 -8.133269999999994 3.771600000000001
head 7.411850000000004 -3.6568700000000014 0.6782709999999987
lclavicle 1.8536700000000047e-14 5.565970000000012e-15
lhumerus -69.0369 -3.1775600000000086 86.8553
lradius 109.951
lwrist 29.385699999999996
lhand -21.108000000000004 4.516660000000002
lfingers nan
lthumb 5.270030000000008 34.4311
rclavicle 1.8536700000000047e-14 5.565970000000012e-15
rhumerus -40.098499999999994 18.810599999999994 -94.4833
rradius 126.92400000000004
rwrist -25.177599999999998
rhand -15.196399999999999 nan
rfingers nan
rthumb 10.975300000000002 15.007200000000001
4
root 0.36058900000000005 18.9983 -15.395600000000012 4.26852 3.8342300000000007 -4.1980900000000005
lfemur -32.634300000000025 -2.7756299999999996 -17.508299999999995
ltibia 27.375199999999975
lfoot 6.033629999999999 -7.17169
ltoes -26.498100000000015
rfemur 14.05599999999998 8.312599999999989 33.97319999999999
rtibia 42.606500000000025
rfoot 22.11300000000002 -9.681179999999998
rtoes 18.410600000000024
lowerback nan 1.8934299999999977 6.213440000000009
upperback -2.2993399999999977 3.742449999999998 1.7503100000000007
thorax -9.664560000000002 1.5018999999999991 -2.403310000000002
lowerneck -18.9529 -6.0455 -2.51423
upperneck 12.516500000000008 -8.173510000000004 3.8683000000000023
head 7.193649999999998 -3.6780399999999993 0.7118760000000001
lclavicle 1.1181600000000006e-14 -3.9756900000000005e-15
lhumerus -69.11069999999998 -3.4298000000000037 86.6655
lradius 110.302
lwrist 29.307299999999998
lhand -20.867499999999993 4.391139999999999
lfingers nan
lthumb 5.502249999999996 34.2997
rclavicle 1.1181600000000006e-14 -3.9756900000000005e-15
rhumerus -40.490900000000025 19.23090000000001 -95.0036
rradius 126.691
rwrist -24.66069999999999
rhand -14.864999999999998 nan
rfingers nan
rthumb 11.295000000000005 15.195299999999996
